<?xml version="1.0" standalone="no"?>
<!DOCTYPE svg PUBLIC "-//W3C//DTD SVG 20010904//EN"
 "http://www.w3.org/TR/2001/REC-SVG-20010904/DTD/svg10.dtd">
<svg version="1.0" xmlns="http://www.w3.org/2000/svg"
 width="192.000000pt" height="192.000000pt" viewBox="0 0 192.000000 192.000000"
 preserveAspectRatio="xMidYMid meet">
<metadata>
Created by potrace 1.11, written by Peter Selinger 2001-2013
</metadata>
<g transform="translate(0.000000,192.000000) scale(0.100000,-0.100000)"
fill="#000000" stroke="none">
<path d="M744 1737 c-13 -10 -22 -23 -19 -28 4 -5 -33 -9 -88 -9 -103 0 -143
-10 -199 -49 -55 -39 -74 -82 -114 -257 -33 -143 -39 -161 -66 -183 -25 -20
-29 -30 -28 -65 3 -76 6 -73 -65 -78 -85 -5 -115 -32 -123 -107 -4 -47 -2 -53
31 -86 24 -24 44 -35 64 -35 l29 0 53 -302 c29 -167 58 -314 64 -328 7 -14 28
-33 47 -42 32 -17 83 -18 623 -18 641 0 641 0 670 57 8 15 29 109 46 208 79
460 71 425 103 425 70 0 120 99 84 168 -30 58 -51 62 -296 62 l-220 0 0 58 c0
56 -2 60 -37 89 -73 58 -134 80 -158 57 -8 -9 -19 -13 -24 -9 -13 8 -72 -18
-127 -55 -55 -37 -79 -39 -70 -7 22 77 38 180 32 212 -4 20 -22 53 -40 73
l-34 37 122 -1 c132 -1 165 6 173 36 5 18 14 20 98 20 85 0 96 -2 124 -25 34
-29 39 -43 76 -210 15 -66 33 -142 39 -170 l12 -50 60 0 c36 1 58 5 57 11 -16
85 -97 423 -105 438 -6 12 -27 38 -47 59 -46 48 -108 67 -223 67 -68 0 -88 3
-88 14 0 35 -28 40 -222 41 -172 1 -192 0 -214 -18z m-14 -169 c0 -7 -21 -28
-46 -47 -54 -41 -66 -61 -69 -119 -2 -41 15 -155 31 -211 6 -21 5 -22 -15 -12
-12 7 -37 22 -56 35 -18 13 -60 33 -92 46 -32 13 -59 24 -60 24 -1 1 8 49 21
107 24 112 46 161 80 178 32 15 206 14 206 -1z m100 -300 c41 -84 79 -131 115
-141 11 -3 51 -9 89 -12 77 -7 86 -10 86 -31 0 -21 -665 -21 -673 1 -4 8 -3
16 1 19 9 5 60 14 130 21 67 7 112 39 137 98 22 49 65 127 71 127 2 0 22 -37
44 -82z m-370 -435 c-1 -5 -16 -25 -34 -46 -27 -30 -35 -34 -40 -21 -6 17 -2
28 22 57 15 17 52 24 52 10z m360 -13 c11 -11 20 -31 20 -45 0 -21 -5 -25 -29
-25 -16 0 -31 6 -35 15 -3 8 -15 15 -26 15 -27 0 -26 25 2 44 30 21 44 20 68
-4z m338 4 c13 -9 22 -26 22 -41 l0 -25 -38 33 c-38 33 -44 49 -19 49 7 0 23
-7 35 -16z m342 -2 c18 -15 22 -27 21 -72 -2 -48 -5 -90 -10 -111 0 -3 -26 -6
-56 -6 l-55 0 5 61 c9 99 15 125 33 135 25 15 37 13 62 -7z m-685 -138 c21
-48 24 -69 24 -174 0 -116 -1 -120 -25 -139 -21 -17 -30 -18 -48 -9 -11 6 -24
16 -28 22 -4 6 -8 66 -8 132 0 101 4 130 21 173 12 28 26 51 30 51 5 0 20 -25
34 -56z m689 -176 c-11 -134 -17 -148 -65 -148 -22 0 -29 5 -29 20 0 15 9 22
30 27 17 3 30 12 30 20 0 14 -39 34 -52 26 -5 -2 -8 3 -8 12 0 9 6 15 13 14
29 -4 47 2 47 15 0 14 -36 32 -52 28 -5 -1 -8 9 -8 23 0 23 3 25 50 25 l49 0
-5 -62z m-1045 -8 c54 0 61 -8 61 -64 0 -59 -12 -76 -52 -76 -39 0 -55 31 -61
125 -6 75 -5 78 8 48 11 -27 20 -33 44 -33z m721 -39 c0 -75 -14 -101 -52
-101 -38 0 -58 29 -58 81 l0 47 50 12 c28 7 50 16 50 21 0 5 2 9 5 9 3 0 5
-31 5 -69z"/>
</g>
</svg>
